<mxfile host="app.diagrams.net" modified="2023-10-25T13:42:14.886Z" agent="Mozilla/5.0 (Macintosh; Intel Mac OS X 10_15_7) AppleWebKit/537.36 (KHTML, like Gecko) Chrome/118.0.0.0 Safari/537.36" etag="uqo-jlIiQ1Ez2RfuwgnE" version="22.0.8" type="github">
  <diagram name="第 1 页" id="msVTxeL3fTes4RFtPc5p">
    <mxGraphModel dx="1157" dy="821" grid="1" gridSize="10" guides="1" tooltips="1" connect="1" arrows="1" fold="1" page="1" pageScale="1" pageWidth="827" pageHeight="1169" math="0" shadow="0">
      <root>
        <mxCell id="0" />
        <mxCell id="1" parent="0" />
        <mxCell id="AeROQ4uNl-l-xiBjzyBw-1" value="" style="group" vertex="1" connectable="0" parent="1">
          <mxGeometry x="257" y="920" width="570" height="135" as="geometry" />
        </mxCell>
        <mxCell id="AeROQ4uNl-l-xiBjzyBw-2" value="" style="rounded=0;whiteSpace=wrap;html=1;strokeColor=#36393d;fontSize=11;fillColor=#cce5ff;dashed=1;dashPattern=12 12;" vertex="1" parent="AeROQ4uNl-l-xiBjzyBw-1">
          <mxGeometry width="570" height="135" as="geometry" />
        </mxCell>
        <mxCell id="AeROQ4uNl-l-xiBjzyBw-3" value="" style="rounded=0;whiteSpace=wrap;html=1;strokeColor=#000000;fontSize=11;fillColor=default;" vertex="1" parent="AeROQ4uNl-l-xiBjzyBw-1">
          <mxGeometry x="10" y="30" width="170" height="90" as="geometry" />
        </mxCell>
        <mxCell id="AeROQ4uNl-l-xiBjzyBw-4" value="shard0" style="text;html=1;align=center;verticalAlign=middle;resizable=0;points=[];autosize=1;strokeColor=none;fillColor=none;fontSize=11;" vertex="1" parent="AeROQ4uNl-l-xiBjzyBw-1">
          <mxGeometry x="65" y="30" width="60" height="30" as="geometry" />
        </mxCell>
        <mxCell id="AeROQ4uNl-l-xiBjzyBw-5" value="tablet 0" style="rounded=0;whiteSpace=wrap;html=1;strokeColor=#ae4132;fontSize=11;fillColor=#fad9d5;dashed=1;" vertex="1" parent="AeROQ4uNl-l-xiBjzyBw-1">
          <mxGeometry x="20" y="64" width="70" height="50" as="geometry" />
        </mxCell>
        <mxCell id="AeROQ4uNl-l-xiBjzyBw-6" value="tablet 1" style="rounded=0;whiteSpace=wrap;html=1;strokeColor=#ae4132;fontSize=11;fillColor=#fad9d5;dashed=1;" vertex="1" parent="AeROQ4uNl-l-xiBjzyBw-1">
          <mxGeometry x="100" y="64" width="70" height="50" as="geometry" />
        </mxCell>
        <mxCell id="AeROQ4uNl-l-xiBjzyBw-7" value="" style="rounded=0;whiteSpace=wrap;html=1;strokeColor=#000000;fontSize=11;fillColor=default;" vertex="1" parent="AeROQ4uNl-l-xiBjzyBw-1">
          <mxGeometry x="200" y="30" width="170" height="90" as="geometry" />
        </mxCell>
        <mxCell id="AeROQ4uNl-l-xiBjzyBw-8" value="shard1" style="text;html=1;align=center;verticalAlign=middle;resizable=0;points=[];autosize=1;strokeColor=none;fillColor=none;fontSize=11;" vertex="1" parent="AeROQ4uNl-l-xiBjzyBw-1">
          <mxGeometry x="255" y="30" width="60" height="30" as="geometry" />
        </mxCell>
        <mxCell id="AeROQ4uNl-l-xiBjzyBw-9" value="tablet 2" style="rounded=0;whiteSpace=wrap;html=1;strokeColor=#36393d;fontSize=11;fillColor=#f9f7ed;dashed=1;" vertex="1" parent="AeROQ4uNl-l-xiBjzyBw-1">
          <mxGeometry x="210" y="64" width="70" height="50" as="geometry" />
        </mxCell>
        <mxCell id="AeROQ4uNl-l-xiBjzyBw-10" value="tablet 3" style="rounded=0;whiteSpace=wrap;html=1;strokeColor=#36393d;fontSize=11;fillColor=#f9f7ed;dashed=1;" vertex="1" parent="AeROQ4uNl-l-xiBjzyBw-1">
          <mxGeometry x="290" y="64" width="70" height="50" as="geometry" />
        </mxCell>
        <mxCell id="AeROQ4uNl-l-xiBjzyBw-11" value="" style="rounded=0;whiteSpace=wrap;html=1;strokeColor=#000000;fontSize=11;fillColor=default;" vertex="1" parent="AeROQ4uNl-l-xiBjzyBw-1">
          <mxGeometry x="390" y="30" width="170" height="90" as="geometry" />
        </mxCell>
        <mxCell id="AeROQ4uNl-l-xiBjzyBw-12" value="shard2" style="text;html=1;align=center;verticalAlign=middle;resizable=0;points=[];autosize=1;strokeColor=none;fillColor=none;fontSize=11;" vertex="1" parent="AeROQ4uNl-l-xiBjzyBw-1">
          <mxGeometry x="445" y="30" width="60" height="30" as="geometry" />
        </mxCell>
        <mxCell id="AeROQ4uNl-l-xiBjzyBw-13" value="tablet 4" style="rounded=0;whiteSpace=wrap;html=1;strokeColor=#666666;fontSize=11;fillColor=#f5f5f5;dashed=1;fontColor=#333333;" vertex="1" parent="AeROQ4uNl-l-xiBjzyBw-1">
          <mxGeometry x="400" y="64" width="70" height="50" as="geometry" />
        </mxCell>
        <mxCell id="AeROQ4uNl-l-xiBjzyBw-14" value="tablet 5" style="rounded=0;whiteSpace=wrap;html=1;strokeColor=#666666;fontSize=11;fillColor=#f5f5f5;dashed=1;fontColor=#333333;" vertex="1" parent="AeROQ4uNl-l-xiBjzyBw-1">
          <mxGeometry x="480" y="64" width="70" height="50" as="geometry" />
        </mxCell>
        <mxCell id="AeROQ4uNl-l-xiBjzyBw-15" value="clickhouse cluster" style="text;html=1;strokeColor=none;fillColor=none;align=center;verticalAlign=middle;whiteSpace=wrap;rounded=0;fontSize=11;" vertex="1" parent="AeROQ4uNl-l-xiBjzyBw-1">
          <mxGeometry x="230" width="100" height="30" as="geometry" />
        </mxCell>
        <mxCell id="AeROQ4uNl-l-xiBjzyBw-61" value="" style="endArrow=classic;html=1;rounded=0;strokeColor=#000000;fontSize=11;curved=1;entryX=1;entryY=0;entryDx=0;entryDy=27.5;entryPerimeter=0;exitX=1;exitY=1;exitDx=0;exitDy=0;" edge="1" parent="1" target="AeROQ4uNl-l-xiBjzyBw-60">
          <mxGeometry width="50" height="50" relative="1" as="geometry">
            <mxPoint x="986" y="290" as="sourcePoint" />
            <mxPoint x="1120" y="190" as="targetPoint" />
            <Array as="points">
              <mxPoint x="1060" y="140" />
              <mxPoint x="1090" y="20" />
              <mxPoint x="770" y="-10" />
            </Array>
          </mxGeometry>
        </mxCell>
        <mxCell id="AeROQ4uNl-l-xiBjzyBw-62" value="update max id of partition-0" style="edgeLabel;html=1;align=center;verticalAlign=middle;resizable=0;points=[];fontSize=11;" vertex="1" connectable="0" parent="AeROQ4uNl-l-xiBjzyBw-61">
          <mxGeometry x="0.0611" y="10" relative="1" as="geometry">
            <mxPoint as="offset" />
          </mxGeometry>
        </mxCell>
        <mxCell id="AeROQ4uNl-l-xiBjzyBw-92" value="client&lt;br&gt;(merge result)" style="rounded=0;whiteSpace=wrap;html=1;strokeColor=#000000;fontSize=11;fillColor=default;" vertex="1" parent="1">
          <mxGeometry x="579.99" y="610" width="111" height="60" as="geometry" />
        </mxCell>
        <mxCell id="AeROQ4uNl-l-xiBjzyBw-93" value="Actor" style="shape=umlActor;verticalLabelPosition=bottom;verticalAlign=top;html=1;outlineConnect=0;strokeColor=#000000;fontSize=11;fillColor=default;" vertex="1" parent="1">
          <mxGeometry x="832.99" y="620" width="30" height="60" as="geometry" />
        </mxCell>
        <mxCell id="AeROQ4uNl-l-xiBjzyBw-94" value="" style="endArrow=classic;html=1;rounded=0;dashed=1;strokeColor=#000000;fontSize=11;curved=1;exitX=0;exitY=1;exitDx=0;exitDy=0;entryX=0.5;entryY=0;entryDx=0;entryDy=0;" edge="1" parent="1" source="AeROQ4uNl-l-xiBjzyBw-92" target="AeROQ4uNl-l-xiBjzyBw-5">
          <mxGeometry width="50" height="50" relative="1" as="geometry">
            <mxPoint x="700" y="830" as="sourcePoint" />
            <mxPoint x="750" y="780" as="targetPoint" />
          </mxGeometry>
        </mxCell>
        <mxCell id="AeROQ4uNl-l-xiBjzyBw-95" value="" style="endArrow=classic;html=1;rounded=0;dashed=1;strokeColor=#000000;fontSize=11;curved=1;exitX=0;exitY=1;exitDx=0;exitDy=0;entryX=0.5;entryY=0;entryDx=0;entryDy=0;" edge="1" parent="1" source="AeROQ4uNl-l-xiBjzyBw-92" target="AeROQ4uNl-l-xiBjzyBw-6">
          <mxGeometry width="50" height="50" relative="1" as="geometry">
            <mxPoint x="837" y="782" as="sourcePoint" />
            <mxPoint x="322" y="994" as="targetPoint" />
          </mxGeometry>
        </mxCell>
        <mxCell id="AeROQ4uNl-l-xiBjzyBw-96" value="" style="endArrow=classic;html=1;rounded=0;dashed=1;strokeColor=#000000;fontSize=11;curved=1;entryX=0.5;entryY=0;entryDx=0;entryDy=0;exitX=0;exitY=1;exitDx=0;exitDy=0;" edge="1" parent="1" source="AeROQ4uNl-l-xiBjzyBw-92" target="AeROQ4uNl-l-xiBjzyBw-9">
          <mxGeometry width="50" height="50" relative="1" as="geometry">
            <mxPoint x="830" y="770" as="sourcePoint" />
            <mxPoint x="332" y="1004" as="targetPoint" />
          </mxGeometry>
        </mxCell>
        <mxCell id="AeROQ4uNl-l-xiBjzyBw-97" value="" style="endArrow=classic;html=1;rounded=0;dashed=1;strokeColor=#000000;fontSize=11;curved=1;exitX=0;exitY=1;exitDx=0;exitDy=0;entryX=0.5;entryY=0;entryDx=0;entryDy=0;" edge="1" parent="1" source="AeROQ4uNl-l-xiBjzyBw-92" target="AeROQ4uNl-l-xiBjzyBw-10">
          <mxGeometry width="50" height="50" relative="1" as="geometry">
            <mxPoint x="857" y="802" as="sourcePoint" />
            <mxPoint x="342" y="1014" as="targetPoint" />
          </mxGeometry>
        </mxCell>
        <mxCell id="AeROQ4uNl-l-xiBjzyBw-98" value="" style="endArrow=classic;html=1;rounded=0;dashed=1;strokeColor=#000000;fontSize=11;curved=1;entryX=0.5;entryY=0;entryDx=0;entryDy=0;exitX=0;exitY=1;exitDx=0;exitDy=0;" edge="1" parent="1" source="AeROQ4uNl-l-xiBjzyBw-92" target="AeROQ4uNl-l-xiBjzyBw-13">
          <mxGeometry width="50" height="50" relative="1" as="geometry">
            <mxPoint x="830" y="770" as="sourcePoint" />
            <mxPoint x="352" y="1024" as="targetPoint" />
          </mxGeometry>
        </mxCell>
        <mxCell id="AeROQ4uNl-l-xiBjzyBw-99" value="" style="endArrow=classic;html=1;rounded=0;dashed=1;strokeColor=#000000;fontSize=11;curved=1;entryX=0.414;entryY=0;entryDx=0;entryDy=0;entryPerimeter=0;exitX=0;exitY=1;exitDx=0;exitDy=0;" edge="1" parent="1" source="AeROQ4uNl-l-xiBjzyBw-92" target="AeROQ4uNl-l-xiBjzyBw-14">
          <mxGeometry width="50" height="50" relative="1" as="geometry">
            <mxPoint x="830" y="770" as="sourcePoint" />
            <mxPoint x="362" y="1034" as="targetPoint" />
          </mxGeometry>
        </mxCell>
        <mxCell id="AeROQ4uNl-l-xiBjzyBw-100" value="&lt;b&gt;parallel retrieve&lt;/b&gt;" style="edgeLabel;html=1;align=center;verticalAlign=middle;resizable=0;points=[];fontSize=11;" vertex="1" connectable="0" parent="AeROQ4uNl-l-xiBjzyBw-99">
          <mxGeometry x="-0.6698" relative="1" as="geometry">
            <mxPoint x="-11" y="-32" as="offset" />
          </mxGeometry>
        </mxCell>
        <mxCell id="AeROQ4uNl-l-xiBjzyBw-101" value="" style="endArrow=classic;html=1;rounded=0;strokeColor=#000000;fontSize=11;curved=1;exitX=0;exitY=0.3333333333333333;exitDx=0;exitDy=0;exitPerimeter=0;" edge="1" parent="1" source="AeROQ4uNl-l-xiBjzyBw-93" target="AeROQ4uNl-l-xiBjzyBw-92">
          <mxGeometry width="50" height="50" relative="1" as="geometry">
            <mxPoint x="752.99" y="770" as="sourcePoint" />
            <mxPoint x="802.99" y="720" as="targetPoint" />
          </mxGeometry>
        </mxCell>
        <mxCell id="AeROQ4uNl-l-xiBjzyBw-102" value="how many male user?" style="edgeLabel;html=1;align=center;verticalAlign=middle;resizable=0;points=[];fontSize=11;" vertex="1" connectable="0" parent="AeROQ4uNl-l-xiBjzyBw-101">
          <mxGeometry x="0.1041" y="-2" relative="1" as="geometry">
            <mxPoint x="11" y="-12" as="offset" />
          </mxGeometry>
        </mxCell>
        <mxCell id="AeROQ4uNl-l-xiBjzyBw-103" value="tablet num=6, &lt;br&gt;each result is 10,20,30,11,22,33&lt;br&gt;so the final answer is 126" style="text;html=1;align=center;verticalAlign=middle;resizable=0;points=[];autosize=1;strokeColor=none;fillColor=none;fontSize=11;" vertex="1" parent="1">
          <mxGeometry x="640" y="720" width="180" height="50" as="geometry" />
        </mxCell>
      </root>
    </mxGraphModel>
  </diagram>
</mxfile>
